<svg xmlns="http://www.w3.org/2000/svg" viewBox="0 0 400 300" fill="none" role="img" aria-label="Exportar comprobantes PDF de nomina">
  <rect width="400" height="300" rx="12" fill="#0d0f14"/>
  <rect x="16" y="16" width="368" height="268" rx="14" fill="#151820" stroke="rgba(255,255,255,0.08)"/>
  <text x="32" y="42" fill="#e8eaf0" font-family="system-ui,sans-serif" font-size="12" font-weight="600">Exportar PDF</text>
  <text x="32" y="58" fill="#9ca3af" font-family="system-ui,sans-serif" font-size="9">Comprobantes para tu archivo personal</text>
  <rect x="48" y="78" width="140" height="168" rx="10" fill="#ffffff" fill-opacity="0.95"/>
  <rect x="64" y="96" width="72" height="8" rx="4" fill="#151820" fill-opacity="0.15"/>
  <rect x="64" y="112" width="108" height="5" rx="2.5" fill="#151820" fill-opacity="0.08"/>
  <rect x="64" y="124" width="96" height="5" rx="2.5" fill="#151820" fill-opacity="0.08"/>
  <rect x="64" y="142" width="108" height="28" rx="6" fill="#4ade80" fill-opacity="0.15"/>
  <text x="118" y="160" fill="#15803d" font-family="system-ui,sans-serif" font-size="10" font-weight="700" text-anchor="middle">$ 2.990.000</text>
  <rect x="64" y="178" width="88" height="5" rx="2.5" fill="#151820" fill-opacity="0.08"/>
  <rect x="64" y="190" width="104" height="5" rx="2.5" fill="#151820" fill-opacity="0.08"/>
  <rect x="64" y="214" width="36" height="14" rx="4" fill="#ef4444" fill-opacity="0.85"/>
  <text x="82" y="224" fill="#ffffff" font-family="system-ui,sans-serif" font-size="8" font-weight="700" text-anchor="middle">PDF</text>
  <rect x="212" y="92" width="156" height="44" rx="10" fill="#1c2030" stroke="rgba(255,255,255,0.06)"/>
  <rect x="228" y="108" width="18" height="18" rx="4" fill="#15803d"/>
  <path d="M232 117h10M237 112v10" stroke="#4ade80" stroke-width="1.5" stroke-linecap="round"/>
  <text x="256" y="118" fill="#e8eaf0" font-family="system-ui,sans-serif" font-size="10">Liquidacion mensual</text>
  <rect x="212" y="144" width="156" height="44" rx="10" fill="#1c2030" stroke="rgba(255,255,255,0.06)"/>
  <rect x="228" y="160" width="18" height="18" rx="4" fill="#15803d"/>
  <path d="M232 169h10M237 164v10" stroke="#4ade80" stroke-width="1.5" stroke-linecap="round"/>
  <text x="256" y="170" fill="#e8eaf0" font-family="system-ui,sans-serif" font-size="10">Dias laborados</text>
  <rect x="212" y="196" width="156" height="44" rx="10" fill="#0d0f14" stroke="#4ade80" stroke-opacity="0.4"/>
  <path d="M228 218h20l-6 6 6 6h-20v-12z" fill="#4ade80"/>
  <text x="256" y="222" fill="#4ade80" font-family="system-ui,sans-serif" font-size="10" font-weight="600">Compartir / guardar</text>
</svg>
